<?xml version="1.0" encoding="UTF-8"?>
<!-- Generator: Adobe Illustrator 15.0.2, SVG Export Plug-In . SVG Version: 6.00 Build 0)  -->
<!DOCTYPE svg PUBLIC "-//W3C//DTD SVG 1.1//EN" "http://www.w3.org/Graphics/SVG/1.1/DTD/svg11.dtd">
<svg xmlns="http://www.w3.org/2000/svg" xmlns:xlink="http://www.w3.org/1999/xlink" version="1.1" id="Layer_1" x="0px" y="0px" width="512px" height="512px" viewBox="0 0 512 512" enable-background="new 0 0 512 512" xml:space="preserve">
<g>
	<path d="M480,128H289.344v96H512v-64C512,142.336,497.656,128,480,128z M32,128c-17.664,0-32,14.336-32,32v64h224v-96H32z M32,256   v224c0,17.656,14.336,32,32,32h160V256H32z M448,512c17.656,0,32-14.344,32-32V256H289.344v256H448z M255.969,95.742h0.094   C256.031,95.805,256,95.938,256,96h33.344c28.312,0,68.406,0,94.656,0c44.188,0,64-21.5,64-48S428.188,0,384,0   c-41.375,0-73.953,18.625-96,40.227c-9.656-5.727-20.828-9.219-32.93-9.219c-11.586,0-22.305,3.266-31.711,8.578   C201.344,18.242,168.961,0,128,0C83.805,0,64,21.5,64,48s19.805,48,64,48c26.656,0,67.617,0,96,0h32   C256,95.938,255.969,95.805,255.969,95.742z M416,48c0,13.219-17.406,16-32,16h-72.672c-0.266-0.445-0.484-0.93-0.734-1.344   C326.844,46.844,351.484,32,384,32C398.594,32,416,34.781,416,48z M96,48c0-13.219,17.406-16,32-16   c31.805,0,55.938,14.242,72.195,29.5c-0.516,0.805-0.898,1.672-1.383,2.5H128C113.406,64,96,61.219,96,48z" fill="#F1396D"/>
</g>
</svg>
